<svg width="145" height="145" viewBox="0 0 145 145" fill="none" xmlns="http://www.w3.org/2000/svg">
    <path
        d="M91.2964 123.747H53.2964C52.1864 123.747 47.2964 117.517 47.2964 116.407V92.7566C47.2964 92.2262 47.5071 91.7174 47.8822 91.3424C48.2572 90.9673 48.766 90.7566 49.2964 90.7566H50.5564V89.4966C50.5562 89.0513 50.7046 88.6186 50.9781 88.2672C51.2516 87.9158 51.6346 87.6657 52.0664 87.5566C46.1964 76.1266 56.3664 67.2466 63.2864 61.2066C66.5764 58.3366 69.9664 55.3766 70.2264 53.4666V53.2666C70.2268 53.0453 70.264 52.8257 70.3364 52.6166C70.4677 52.214 70.7233 51.8634 71.0666 51.6154C71.4098 51.3674 71.8229 51.2348 72.2464 51.2366C72.7768 51.2366 73.2855 51.4473 73.6606 51.8224C74.0357 52.1974 74.2464 52.7062 74.2464 53.2366V53.4366C74.5064 55.3466 77.9064 58.3066 81.1864 61.1766C88.1164 67.1766 98.2864 76.0966 92.4164 87.5266C92.8481 87.6357 93.2311 87.8858 93.5047 88.2372C93.7782 88.5886 93.9266 89.0213 93.9264 89.4666V90.7266H95.1864C95.7168 90.7266 96.2255 90.9373 96.6006 91.3124C96.9757 91.6874 97.1864 92.1962 97.1864 92.7266V118.217C97.1864 119.347 92.3664 123.747 91.2964 123.747ZM51.2964 119.747H93.1864V94.7466H91.9264C91.396 94.7466 90.8872 94.5359 90.5122 94.1608C90.1371 93.7857 89.9264 93.277 89.9264 92.7466V91.4866H88.8264C88.455 91.4866 88.0909 91.3832 87.7749 91.1879C87.459 90.9926 87.2036 90.7132 87.0375 90.381C86.8714 90.0488 86.8011 89.6769 86.8345 89.307C86.8678 88.937 87.0035 88.5837 87.2264 88.2866C94.1764 79.0166 88.0164 72.4566 78.5564 64.2066C76.2746 62.3482 74.1599 60.2937 72.2364 58.0666C70.318 60.2986 68.2028 62.3535 65.9164 64.2066C56.4664 72.4566 50.3064 79.0166 57.2464 88.2866C57.4692 88.5837 57.6049 88.937 57.6383 89.307C57.6717 89.6769 57.6013 90.0488 57.4352 90.381C57.2691 90.7132 57.0138 90.9926 56.6978 91.1879C56.3819 91.3832 56.0178 91.4866 55.6464 91.4866H54.5564V92.7466C54.5564 93.277 54.3457 93.7857 53.9706 94.1608C53.5955 94.5359 53.0868 94.7466 52.5564 94.7466H51.2964V119.747Z"
        fill="#F9AB3E" />
    <path d="M88.4464 24.5766L84.4464 20.5766H60.0264L56.0264 24.5766H88.4464Z" fill="#F9AB3E" />
    <path d="M24.5767 56.0366L20.5767 60.0366V84.4566L24.5767 88.4566V56.0366Z" fill="#F9AB3E" />
    <path d="M123.907 60.0366L119.907 56.0366V88.4566L123.907 84.4566V60.0366Z" fill="#F9AB3E" />
    <path
        d="M101.177 24.5766H119.907V43.3066L123.907 47.3066V22.5766C123.907 22.0462 123.696 21.5375 123.321 21.1624C122.946 20.7873 122.437 20.5766 121.907 20.5766H97.1768L101.177 24.5766Z"
        fill="#F9AB3E" />
    <path
        d="M119.907 101.177V119.907H101.177L97.1768 123.907H121.907C122.437 123.907 122.946 123.696 123.321 123.321C123.696 122.946 123.907 122.437 123.907 121.907V97.1766L119.907 101.177Z"
        fill="#F9AB3E" />
    <path
        d="M24.5767 43.3066V24.5766H43.2967L47.2967 20.5766H22.5767C22.0462 20.5766 21.5375 20.7873 21.1624 21.1624C20.7874 21.5375 20.5767 22.0462 20.5767 22.5766V47.3066L24.5767 43.3066Z"
        fill="#F9AB3E" />
    <path
        d="M43.2967 119.907H24.5767V101.177L20.5767 97.1766V121.907C20.5767 122.437 20.7874 122.946 21.1624 123.321C21.5375 123.696 22.0462 123.907 22.5767 123.907H47.2967L43.2967 119.907Z"
        fill="#F9AB3E" />
    <path
        d="M72.2366 144.487C71.707 144.484 71.1999 144.272 70.8266 143.897L0.586571 73.6566C0.400618 73.4708 0.253099 73.2503 0.152451 73.0075C0.051802 72.7647 0 72.5044 0 72.2416C0 71.9787 0.051802 71.7185 0.152451 71.4757C0.253099 71.2329 0.400618 71.0123 0.586571 70.8266L70.8266 0.586575C71.0123 0.400622 71.2329 0.253103 71.4757 0.152454C71.7185 0.0518058 71.9787 0 72.2416 0C72.5044 0 72.7647 0.0518058 73.0074 0.152454C73.2502 0.253103 73.4708 0.400622 73.6566 0.586575L143.897 70.8266C144.083 71.0123 144.23 71.2329 144.331 71.4757C144.431 71.7185 144.483 71.9787 144.483 72.2416C144.483 72.5044 144.431 72.7647 144.331 73.0075C144.23 73.2503 144.083 73.4708 143.897 73.6566L73.6566 143.897C73.4705 144.084 73.2493 144.232 73.0055 144.333C72.7618 144.435 72.5005 144.487 72.2366 144.487ZM4.82657 72.2466L72.2366 139.657L139.647 72.2466L72.2366 4.83657L4.82657 72.2466Z"
        fill="#F9AB3E" />
    <path
        d="M72.2964 54.5766C69.4798 54.491 66.8072 53.3119 64.8451 51.2893C62.883 49.2667 61.7856 46.5595 61.7856 43.7416C61.7856 40.9236 62.883 38.2164 64.8451 36.1938C66.8072 34.1712 69.4798 32.9921 72.2964 32.9066C72.8269 32.9066 73.3356 33.1173 73.7107 33.4923C74.0857 33.8674 74.2964 34.3761 74.2964 34.9066C74.2964 35.437 74.0857 35.9457 73.7107 36.3208C73.3356 36.6958 72.8269 36.9066 72.2964 36.9066C70.9728 36.9056 69.6773 37.2886 68.5671 38.0093C67.4569 38.73 66.5796 39.7573 66.0417 40.9667C65.5038 42.1761 65.3283 43.5156 65.5365 44.8227C65.7448 46.1298 66.3278 47.3485 67.2149 48.3308C68.102 49.3132 69.2551 50.017 70.5343 50.357C71.8135 50.697 73.1639 50.6586 74.4217 50.2463C75.6795 49.8341 76.7907 49.0657 77.6204 48.0345C78.4502 47.0033 78.9629 45.7534 79.0965 44.4366C79.1221 44.1739 79.1992 43.9189 79.3233 43.686C79.4475 43.4532 79.6163 43.2471 79.8201 43.0795C80.0239 42.9118 80.2588 42.786 80.5112 42.7092C80.7637 42.6323 81.0288 42.6059 81.2914 42.6316C81.5541 42.6572 81.8091 42.7343 82.042 42.8584C82.2748 42.9826 82.4809 43.1514 82.6485 43.3552C82.8162 43.559 82.942 43.7939 83.0188 44.0463C83.0957 44.2988 83.1221 44.5639 83.0965 44.8266C82.8392 47.5069 81.5882 49.994 79.5895 51.7984C77.5907 53.6028 74.9891 54.5939 72.2964 54.5766Z"
        fill="#F9AB3E" />
    <path
        d="M89.4067 91.7466H55.0767C54.5462 91.7466 54.0375 91.5359 53.6624 91.1608C53.2874 90.7857 53.0767 90.277 53.0767 89.7466C53.0767 89.2161 53.2874 88.7074 53.6624 88.3324C54.0375 87.9573 54.5462 87.7466 55.0767 87.7466H89.4067C89.9371 87.7466 90.4458 87.9573 90.8209 88.3324C91.1959 88.7074 91.4067 89.2161 91.4067 89.7466C91.4067 90.277 91.1959 90.7857 90.8209 91.1608C90.4458 91.5359 89.9371 91.7466 89.4067 91.7466Z"
        fill="#F9AB3E" />
    <path
        d="M48.0965 70.4066H34.2965C34.0133 70.4075 33.7331 70.3482 33.4745 70.2327C33.2159 70.1172 32.9848 69.9481 32.7965 69.7366C31.9326 68.8745 31.2531 67.8458 30.7993 66.7129C30.3454 65.58 30.1267 64.3666 30.1565 63.1466C30.4065 59.1466 33.7465 56.2866 36.4265 53.9466C37.4794 53.14 38.415 52.1909 39.2065 51.1266C39.2065 50.5962 39.4172 50.0874 39.7923 49.7124C40.1673 49.3373 40.6761 49.1266 41.2065 49.1266C41.7369 49.1266 42.2456 49.3373 42.6207 49.7124C42.9958 50.0874 43.2065 50.5962 43.2065 51.1266C43.9988 52.1843 44.9345 53.1267 45.9865 53.9266C48.6665 56.2666 51.9865 59.1766 52.2465 63.1266C52.2775 64.3459 52.0604 65.5589 51.6083 66.6917C51.1562 67.8246 50.4786 68.8537 49.6165 69.7166C49.4278 69.9343 49.1943 70.1087 48.9319 70.2277C48.6696 70.3468 48.3846 70.4078 48.0965 70.4066ZM35.2065 66.4066H47.1465C47.8594 65.5706 48.2464 64.5052 48.2365 63.4066C48.0965 61.1266 45.5665 58.9166 43.3365 56.9766C42.5565 56.2966 41.8165 55.6466 41.1765 54.9766C40.5465 55.6266 39.8065 56.2766 39.0265 56.9766C36.7965 58.9166 34.2665 61.1266 34.1165 63.4066C34.111 64.5045 34.4975 65.5683 35.2065 66.4066Z"
        fill="#F9AB3E" />
    <path
        d="M34.2964 106.157C33.766 106.157 33.2572 105.946 32.8822 105.571C32.5071 105.196 32.2964 104.687 32.2964 104.157V68.4066C32.2964 67.8761 32.5071 67.3674 32.8822 66.9923C33.2572 66.6173 33.766 66.4066 34.2964 66.4066C34.8268 66.4066 35.3355 66.6173 35.7106 66.9923C36.0857 67.3674 36.2964 67.8761 36.2964 68.4066V104.157C36.2964 104.687 36.0857 105.196 35.7106 105.571C35.3355 105.946 34.8268 106.157 34.2964 106.157Z"
        fill="#F9AB3E" />
    <path
        d="M48.0967 77.6566C47.5662 77.6566 47.0575 77.4458 46.6825 77.0708C46.3074 76.6957 46.0967 76.187 46.0967 75.6566V68.4066C46.0967 67.8761 46.3074 67.3674 46.6825 66.9923C47.0575 66.6173 47.5662 66.4066 48.0967 66.4066C48.6271 66.4066 49.1358 66.6173 49.5109 66.9923C49.886 67.3674 50.0967 67.8761 50.0967 68.4066V75.6566C50.0967 76.187 49.886 76.6957 49.5109 77.0708C49.1358 77.4458 48.6271 77.6566 48.0967 77.6566Z"
        fill="#F9AB3E" />
    <path
        d="M110.516 70.4065H96.6864C96.4032 70.4074 96.123 70.3482 95.8644 70.2327C95.6058 70.1172 95.3747 69.9481 95.1864 69.7365C94.3263 68.8717 93.6492 67.8425 93.1956 66.7102C92.7421 65.578 92.5212 64.366 92.5464 63.1465C92.8064 59.1465 96.1364 56.2865 98.8164 53.9465C99.872 53.1277 100.808 52.165 101.596 51.0865C101.596 50.5561 101.807 50.0474 102.182 49.6723C102.557 49.2973 103.066 49.0865 103.596 49.0865C104.127 49.0865 104.636 49.2973 105.011 49.6723C105.386 50.0474 105.596 50.5561 105.596 51.0865C106.391 52.1419 107.327 53.0839 108.376 53.8866C111.056 56.2266 114.376 59.1365 114.646 63.0865C114.671 64.306 114.451 65.518 113.997 66.6502C113.544 67.7825 112.866 68.8117 112.006 69.6765C111.825 69.8978 111.598 70.0774 111.341 70.2034C111.084 70.3293 110.802 70.3986 110.516 70.4065ZM97.6364 66.4065H109.566C110.284 65.5733 110.672 64.5061 110.656 63.4065C110.516 61.1265 107.986 58.9165 105.756 56.9765C104.976 56.2965 104.236 55.6465 103.596 54.9765C102.966 55.6265 102.226 56.2765 101.446 56.9765C99.2164 58.9165 96.6864 61.1265 96.5364 63.4065C96.5301 64.5063 96.9207 65.5715 97.6364 66.4065Z"
        fill="#F9AB3E" />
    <path
        d="M110.517 106.157C109.986 106.157 109.477 105.946 109.102 105.571C108.727 105.196 108.517 104.687 108.517 104.157V68.4066C108.517 67.8761 108.727 67.3674 109.102 66.9923C109.477 66.6173 109.986 66.4066 110.517 66.4066C111.047 66.4066 111.556 66.6173 111.931 66.9923C112.306 67.3674 112.517 67.8761 112.517 68.4066V104.157C112.517 104.687 112.306 105.196 111.931 105.571C111.556 105.946 111.047 106.157 110.517 106.157Z"
        fill="#F9AB3E" />
    <path
        d="M96.6865 77.6566C96.1561 77.6566 95.6474 77.4458 95.2723 77.0708C94.8972 76.6957 94.6865 76.187 94.6865 75.6566V68.4066C94.6865 67.8761 94.8972 67.3674 95.2723 66.9923C95.6474 66.6173 96.1561 66.4066 96.6865 66.4066C97.217 66.4066 97.7257 66.6173 98.1007 66.9923C98.4758 67.3674 98.6865 67.8761 98.6865 68.4066V75.6566C98.6865 76.187 98.4758 76.6957 98.1007 77.0708C97.7257 77.4458 97.217 77.6566 96.6865 77.6566Z"
        fill="#F9AB3E" />
    <path
        d="M72.3467 45.9066C73.8655 45.9066 75.0967 44.6753 75.0967 43.1566C75.0967 41.6378 73.8655 40.4066 72.3467 40.4066C70.8279 40.4066 69.5967 41.6378 69.5967 43.1566C69.5967 44.6753 70.8279 45.9066 72.3467 45.9066Z"
        fill="#F9AB3E" />
</svg>
    