<svg width="1059" height="1059" viewBox="0 0 1059 1059" fill="none"
    xmlns="http://www.w3.org/2000/svg">
    <g clip-path="url(#clip0_27_99)">
        <path opacity="0.53" fill-rule="evenodd" clip-rule="evenodd"
            d="M535.679 378.681C533.427 381.661 530.917 384.437 528.177 386.976C526.088 389.941 525.005 393.499 525.089 397.125C524.654 397.191 524.239 397.351 523.872 397.595C523.506 397.839 523.199 398.161 522.971 398.537C522.754 398.913 522.64 399.339 522.64 399.773C522.64 400.206 522.754 400.632 522.971 401.008C519.783 402.922 517.281 405.795 515.822 409.215C515.169 412.882 514.194 416.485 512.91 419.982V420.864L513.528 420.07C514.582 418.741 515.471 417.289 516.175 415.746C517.058 414.069 517.676 412.304 518.646 410.539C519.629 408.996 520.922 407.674 522.441 406.656C524.294 405.421 525.971 404.626 527.736 403.656C528.176 404.561 528.388 405.561 528.354 406.568C528.354 407.186 529.589 406.568 529.942 406.568C531.674 404.907 532.846 402.748 533.296 400.39C533.296 399.949 533.296 398.802 533.296 398.89C532.406 399.435 531.416 399.795 530.384 399.949C530.248 398.01 530.248 396.064 530.384 394.125C530.351 392.313 530.776 390.522 531.619 388.918C532.545 387.208 533.576 385.557 534.708 383.976C535.585 382.519 536.324 380.982 536.914 379.387C536.932 379.063 536.932 378.739 536.914 378.416C536.52 378.571 536.102 378.661 535.679 378.681Z"
            fill="#108E7F" />
        <path opacity="0.53" fill-rule="evenodd" clip-rule="evenodd"
            d="M642.287 374.533C640.314 377.122 638.13 379.542 635.756 381.769C633.95 384.355 632.993 387.44 633.021 390.594C632.632 390.626 632.258 390.756 631.934 390.972C631.61 391.188 631.346 391.484 631.167 391.83C630.99 392.155 630.897 392.519 630.897 392.889C630.897 393.259 630.99 393.623 631.167 393.948C628.381 395.654 626.192 398.182 624.902 401.184C624.314 404.36 623.488 407.487 622.431 410.539V411.333L622.96 410.627C623.925 409.478 624.727 408.201 625.343 406.832C625.971 405.282 626.708 403.778 627.549 402.332C628.352 400.972 629.435 399.799 630.726 398.89C632.403 397.831 633.903 397.125 635.403 396.243C635.774 397.043 635.956 397.919 635.933 398.802C635.933 399.331 636.904 398.802 637.257 398.802C638.8 397.369 639.851 395.485 640.257 393.419C640.257 392.977 640.257 392.006 640.257 392.095C639.495 392.62 638.617 392.953 637.698 393.065C637.559 391.362 637.559 389.65 637.698 387.947C637.7 386.385 638.062 384.845 638.757 383.446C639.551 381.858 640.61 380.534 641.493 379.122C642.273 377.88 642.896 376.546 643.346 375.151V374.356L642.287 374.533Z"
            fill="#108E7F" />
        <path fill-rule="evenodd" clip-rule="evenodd"
            d="M180.827 421.835C178.036 419.681 175.411 417.321 172.973 414.775C170.181 412.847 166.916 411.718 163.53 411.51C163.451 411.114 163.294 410.738 163.066 410.404C162.839 410.07 162.546 409.786 162.206 409.568C161.844 409.413 161.453 409.333 161.059 409.333C160.665 409.333 160.274 409.413 159.912 409.568C157.929 406.703 155.218 404.418 152.058 402.95C148.649 402.177 145.312 401.115 142.085 399.773H141.291L141.997 400.39C143.256 401.384 144.617 402.242 146.057 402.95C147.645 403.744 149.322 404.45 150.91 405.421C152.398 406.263 153.667 407.441 154.617 408.862C155.71 410.36 156.712 411.922 157.617 413.54C157.583 413.685 157.583 413.836 157.617 413.981C156.72 414.209 155.779 414.209 154.882 413.981C154.352 413.981 154.882 414.952 155.323 415.305C156.908 416.95 158.928 418.113 161.147 418.658C161.147 418.658 162.559 418.658 162.471 418.658C161.912 417.928 161.52 417.085 161.324 416.187C163.116 416.059 164.915 416.059 166.707 416.187C168.408 416.302 170.064 416.784 171.561 417.599C173.154 418.466 174.687 419.439 176.15 420.511C177.518 421.358 178.966 422.067 180.474 422.629H181.357L180.827 421.835Z"
            fill="#108E7F" />
        <path fill-rule="evenodd" clip-rule="evenodd"
            d="M245.6 284.783C241.459 285.101 237.299 285.101 233.157 284.783C229.158 285.143 225.338 286.61 222.126 289.019C221.773 288.695 221.351 288.456 220.893 288.319C220.435 288.181 219.951 288.149 219.478 288.225C218.564 288.447 217.773 289.017 217.272 289.813C213.32 288.692 209.134 288.692 205.182 289.813C201.482 291.685 197.647 293.278 193.709 294.579H192.65H194.151C196.028 294.524 197.893 294.258 199.71 293.784C201.828 293.343 203.858 292.637 206.064 292.284C208.016 291.892 210.026 291.892 211.977 292.284C214.104 292.801 216.196 293.449 218.243 294.226C217.677 295.162 216.927 295.973 216.037 296.608C216.037 297.138 216.919 297.403 217.449 297.491C220.128 297.751 222.825 297.23 225.215 295.991C225.215 295.991 226.715 295.108 226.185 294.667C225.116 294.434 224.118 293.95 223.273 293.255C223.273 293.255 223.273 293.255 223.273 292.814C224.85 291.404 226.5 290.079 228.215 288.842C229.891 287.743 231.741 286.937 233.687 286.46C235.893 285.93 238.011 285.93 240.129 285.577C241.984 285.32 243.815 284.907 245.6 284.342H246.659L245.6 284.783Z"
            fill="#108E7F" />
        <path fill-rule="evenodd" clip-rule="evenodd"
            d="M516.355 308.875C514.693 305.933 513.418 302.789 512.56 299.521C511.635 298.162 510.448 297.002 509.069 296.108C507.69 295.214 506.147 294.604 504.529 294.314C504.746 293.938 504.86 293.512 504.86 293.078C504.86 292.645 504.746 292.218 504.529 291.843C504.204 291.57 503.817 291.379 503.402 291.287C502.988 291.195 502.557 291.204 502.146 291.313C502.139 289.646 501.781 288 501.097 286.479C500.413 284.959 499.418 283.6 498.175 282.488C495.263 280.459 492.439 280.194 489.35 277.282L488.732 276.664V277.458C489.424 278.793 490.317 280.013 491.38 281.076C492.722 282.168 493.963 283.379 495.086 284.695C496.077 286.024 496.632 287.627 496.675 289.284C496.807 291.252 496.807 293.228 496.675 295.196V295.726C495.627 295.947 494.545 295.947 493.498 295.726C492.88 295.726 493.057 296.961 493.057 297.403C493.356 298.429 493.874 299.378 494.575 300.185C495.275 300.993 496.142 301.639 497.116 302.08C497.557 302.08 498.616 302.609 498.793 302.08C498.745 301.024 498.925 299.97 499.322 298.991H499.852C501.787 299.156 503.706 299.481 505.588 299.962C507.186 300.319 508.652 301.113 509.824 302.256C511.06 303.58 511.854 305.08 512.913 306.404C513.782 307.608 514.822 308.679 516.002 309.581L516.796 310.111L516.355 308.875Z"
            fill="#108E7F" />
        <path fill-rule="evenodd" clip-rule="evenodd"
            d="M453.784 354.853C450.895 355.547 447.93 355.873 444.959 355.824C441.429 356.442 439.841 359.53 438.517 361.384C438.251 361.103 437.91 360.904 437.535 360.81C437.16 360.716 436.766 360.732 436.399 360.854C436.074 361.042 435.805 361.312 435.619 361.638C435.433 361.963 435.336 362.332 435.34 362.707C433.863 362.299 432.317 362.198 430.799 362.41C429.281 362.623 427.823 363.145 426.515 363.943C424.132 365.973 423.25 368.267 419.984 370.032H419.278H420.073C421.302 369.837 422.493 369.449 423.603 368.885C425.015 368.179 426.162 367.296 427.574 366.679C429.021 366.305 430.539 366.305 431.986 366.679C433.84 366.679 435.428 367.649 437.105 368.091C437.071 369.054 436.798 369.994 436.311 370.826C436.311 371.444 437.281 371.532 437.634 371.621C438.593 371.655 439.547 371.466 440.42 371.068C441.294 370.669 442.062 370.073 442.665 369.326C442.665 369.326 443.459 368.179 442.665 367.826C441.74 367.628 440.868 367.237 440.105 366.679C440.147 366.535 440.147 366.382 440.105 366.237C440.984 364.708 441.957 363.235 443.018 361.825C443.772 360.553 444.834 359.491 446.106 358.736C447.519 358.158 448.963 357.657 450.431 357.236C451.68 356.73 452.864 356.078 453.961 355.294L454.578 354.765L453.784 354.853Z"
            fill="#108E7F" />
        <path
            d="M1194.31 865.159C1190.14 865.335 1185.98 864.586 1182.14 862.964C1178.27 861.426 1174.13 860.68 1169.97 860.77C1165.65 860.637 1161.35 860.17 1157.1 859.373C1152.89 858.95 1148.89 857.284 1145.63 854.585C1137.85 853.293 1129.97 852.659 1122.09 852.69C1115.6 852.69 1104.83 844.012 1096.25 843.712C1091.46 843.712 1075.11 839.822 1059.15 836.53V774.286C1059.11 770.651 1057.85 767.134 1055.55 764.311V709.05C1055.38 707.022 1054.43 705.138 1052.91 703.784C1051.39 702.431 1049.41 701.709 1047.38 701.768H1030.22C1030.24 697.753 1029.43 693.777 1027.82 690.097C1025.36 685.208 1021.81 680.944 1017.45 677.628C1013.35 674.264 1008.94 671.292 1004.28 668.751C1004.36 667.988 1004.36 667.219 1004.28 666.456C1004.32 665.297 1004.12 664.142 1003.68 663.065C1003.01 661.743 1002.02 660.611 1000.79 659.773C999.742 658.973 998.643 658.24 997.5 657.579V655.484L998.099 654.786C998.188 654.425 998.188 654.049 998.099 653.688C998.244 653.303 998.244 652.877 998.099 652.491C997.95 652.247 997.745 652.042 997.5 651.893V650.097C997.713 649.985 997.887 649.811 997.999 649.599C998.046 649.301 998.046 648.998 997.999 648.701C998.099 648.376 998.099 648.028 997.999 647.703V647.105V644.91L997.301 630.447H996.702L996.004 644.91V646.806V647.404C995.904 647.729 995.904 648.077 996.004 648.402C995.957 648.699 995.957 649.002 996.004 649.299C995.969 649.464 995.969 649.634 996.004 649.798V651.893C995.721 652.11 995.483 652.381 995.306 652.691C995.205 653.084 995.205 653.495 995.306 653.888C995.213 654.248 995.213 654.625 995.306 654.985C995.485 655.266 995.723 655.504 996.004 655.683V657.778C994.862 658.439 993.762 659.172 992.712 659.973C991.516 660.842 990.528 661.966 989.82 663.264C989.313 664.356 989.074 665.553 989.121 666.756C989.121 667.653 989.121 668.451 989.121 669.05C984.513 671.619 980.141 674.59 976.054 677.928C971.891 681.258 968.489 685.441 966.079 690.197C963.912 693.729 962.486 697.667 961.89 701.768H956.204V681.818C958.918 677.344 960.468 672.261 960.712 667.033C960.956 661.806 959.886 656.601 957.6 651.893C954.101 646.525 949.428 642.023 943.935 638.726C938.438 634.977 932.67 631.642 926.678 628.751C926.932 627.974 927.099 627.171 927.177 626.357C927.277 625.075 926.999 623.792 926.379 622.666C925.407 621.159 924.069 619.923 922.488 619.075C921.111 618.157 919.64 617.388 918.099 616.781V614.487C918.454 614.327 918.737 614.043 918.897 613.689C919.053 613.305 919.053 612.876 918.897 612.492C919.043 612.106 919.043 611.68 918.897 611.295C918.643 610.919 918.3 610.611 917.9 610.397V608.502C917.9 608.502 917.9 608.502 918.498 607.903C918.584 607.61 918.584 607.299 918.498 607.005C918.601 606.647 918.601 606.267 918.498 605.908C918.303 605.629 918.023 605.419 917.7 605.31V603.215L916.902 587.654C916.827 587.61 916.741 587.587 916.653 587.587C916.565 587.587 916.479 587.61 916.404 587.654L915.506 603.215V605.31C915.183 605.419 914.903 605.629 914.708 605.908C914.605 606.267 914.605 606.647 914.708 607.005C914.622 607.299 914.622 607.61 914.708 607.903C914.708 607.903 914.708 608.402 915.306 608.502V610.397C914.906 610.611 914.564 610.919 914.309 611.295C914.163 611.68 914.163 612.106 914.309 612.492C914.154 612.876 914.154 613.305 914.309 613.689C914.493 614.026 914.77 614.303 915.107 614.487V616.781C913.567 617.388 912.095 618.157 910.718 619.075C909.138 619.923 907.799 621.159 906.828 622.666C906.207 623.792 905.93 625.075 906.03 626.357C906.107 627.171 906.274 627.974 906.528 628.751C900.536 631.642 894.768 634.977 889.272 638.726C883.287 641.792 878.174 646.322 874.409 651.893C872.03 656.566 870.89 661.772 871.1 667.012C871.309 672.252 872.861 677.35 875.606 681.818V701.768H857.85V691.793H849.571C852.674 689.077 855.166 685.735 856.886 681.988C858.605 678.24 859.511 674.171 859.546 670.047C858.776 661.477 854.963 653.466 848.797 647.464C842.63 641.462 834.518 637.867 825.93 637.329C825.115 636.248 824.099 635.334 822.938 634.636V630.945C822.928 630.422 822.786 629.909 822.525 629.456C822.263 629.002 821.89 628.622 821.442 628.352L819.147 610.098C819.147 609.499 819.147 609.399 819.147 610.098C818.449 616.282 817.651 622.367 816.853 628.452C816.392 628.717 816.005 629.093 815.726 629.546C815.447 629.999 815.286 630.514 815.257 631.045V634.736C814.32 635.422 813.51 636.265 812.863 637.23C792.913 639.524 777.352 653.289 777.352 670.147C777.43 674.263 778.356 678.319 780.072 682.06C781.788 685.802 784.258 689.149 787.327 691.893H779.646V701.868H761.592L760.694 637.828C762.421 637.048 763.804 635.665 764.584 633.938L767.078 628.551C768.175 626.157 767.078 624.362 764.285 624.362H760.594L759.696 561.12V558.926V557.031C760.736 556.108 761.583 554.989 762.19 553.739V552.941L764.085 548.053C764.983 545.759 764.085 543.864 761.691 543.864H759.297V508.153V506.956V499.275V476.931V476.333V472.343C760.252 471.393 760.97 470.231 761.392 468.951L763.188 463.465C763.986 461.171 763.188 459.276 761.193 459.276H758.1V439.326H760.893V438.827H758.1C758.359 436.608 758.12 434.359 757.402 432.243C755.794 430.052 753.879 428.104 751.716 426.458C752.014 426.31 752.265 426.083 752.441 425.801C752.617 425.519 752.712 425.194 752.714 424.862C752.716 424.366 752.534 423.886 752.202 423.517C751.87 423.148 751.412 422.916 750.918 422.867C751.342 422.867 751.748 422.699 752.047 422.399C752.346 422.1 752.514 421.694 752.514 421.271C752.515 420.838 752.35 420.421 752.053 420.106C751.757 419.79 751.351 419.601 750.918 419.575C751.209 419.575 751.488 419.459 751.694 419.254C751.9 419.048 752.016 418.769 752.016 418.478C752.017 418.177 751.904 417.887 751.701 417.665C751.498 417.443 751.218 417.306 750.918 417.281C750.601 417.281 750.296 417.407 750.072 417.631C749.847 417.856 749.721 418.16 749.721 418.478C749.721 418.769 749.837 419.048 750.043 419.254C750.248 419.459 750.528 419.575 750.819 419.575C750.386 419.601 749.98 419.79 749.683 420.106C749.387 420.421 749.222 420.838 749.223 421.271C749.208 421.484 749.239 421.698 749.314 421.899C749.389 422.099 749.506 422.281 749.657 422.432C749.809 422.583 749.99 422.701 750.191 422.776C750.391 422.85 750.605 422.882 750.819 422.867C750.307 422.892 749.825 423.114 749.472 423.485C749.119 423.857 748.923 424.35 748.923 424.862C748.926 425.182 749.01 425.496 749.167 425.775C749.324 426.055 749.549 426.289 749.821 426.458C747.628 428.103 745.68 430.05 744.036 432.243C743.237 434.34 742.963 436.6 743.238 438.827H740.544V439.326H743.238V459.276H739.347C737.452 459.276 736.455 461.171 737.253 463.465L739.048 468.951C739.846 471.246 741.542 473.141 742.839 473.141V475.435V476.034V498.378V499.674V506.956L741.941 542.667H738.15C735.956 542.667 734.958 544.562 735.756 546.856L737.851 552.342C738.436 553.998 739.607 555.382 741.143 556.233V557.729V559.923L739.647 623.165H735.956C733.263 623.165 732.066 624.96 733.063 627.354L735.557 632.741C736.36 634.418 737.691 635.785 739.347 636.631L738.15 701.768H727.078L726.081 621.968C727.476 621.381 728.586 620.271 729.173 618.876C729.871 617.18 730.27 616.382 731.068 614.686C731.866 612.99 731.068 611.394 728.874 611.394H725.981L725.283 561.519V559.824V558.327C726.123 557.596 726.773 556.672 727.178 555.634V555.135L728.674 551.245C729.372 549.45 728.674 547.953 726.779 547.953H724.884V519.924V518.926V513.141V495.684V492.293C725.661 491.547 726.243 490.623 726.579 489.6C727.178 487.904 727.377 487.006 727.976 485.31C728.574 483.615 727.976 482.019 726.38 482.019H724.584V466.158H726.779H724.185C724.62 464.457 724.62 462.673 724.185 460.971C722.922 459.259 721.409 457.746 719.697 456.483C719.965 456.384 720.212 456.234 720.422 456.041C720.633 455.847 720.803 455.614 720.923 455.355C721.044 455.095 721.112 454.815 721.124 454.529C721.136 454.243 721.092 453.958 720.993 453.69C720.895 453.421 720.745 453.175 720.551 452.964C720.358 452.754 720.125 452.583 719.865 452.463C719.606 452.342 719.325 452.274 719.04 452.262C718.754 452.25 718.469 452.295 718.2 452.393C718.527 452.368 718.831 452.22 719.053 451.98C719.275 451.739 719.398 451.423 719.397 451.096C719.43 450.928 719.422 450.754 719.375 450.589C719.327 450.424 719.242 450.272 719.126 450.146C719.009 450.02 718.865 449.923 718.704 449.863C718.544 449.802 718.371 449.781 718.2 449.799C718.413 449.757 718.606 449.646 718.75 449.484C718.894 449.322 718.981 449.118 718.998 448.902C719.013 448.789 719.002 448.674 718.969 448.566C718.935 448.457 718.879 448.357 718.803 448.272C718.727 448.187 718.635 448.119 718.531 448.073C718.427 448.026 718.314 448.003 718.2 448.004C717.962 448.004 717.734 448.098 717.566 448.267C717.397 448.435 717.303 448.664 717.303 448.902C717.32 449.118 717.407 449.322 717.551 449.484C717.695 449.646 717.888 449.757 718.101 449.799C717.93 449.799 717.762 449.833 717.604 449.898C717.447 449.963 717.304 450.059 717.184 450.179C717.063 450.3 716.968 450.443 716.903 450.6C716.837 450.757 716.804 450.926 716.804 451.096C716.829 451.449 716.987 451.779 717.247 452.02C717.506 452.26 717.847 452.394 718.2 452.393C717.803 452.393 717.423 452.551 717.142 452.831C716.862 453.112 716.704 453.492 716.704 453.889C716.715 454.144 716.784 454.393 716.905 454.617C717.026 454.842 717.196 455.036 717.402 455.186C715.69 456.449 714.177 457.962 712.914 459.675C712.284 461.326 712.078 463.11 712.315 464.862V482.318H709.323C707.826 482.318 707.028 483.814 707.627 485.61L709.123 489.899C709.722 491.694 711.018 493.191 712.016 493.191V494.986V512.442V513.54V519.225L711.318 547.255H708.225C706.53 547.255 705.732 548.751 706.43 550.547C707.128 552.342 707.328 553.14 708.026 554.836C708.491 556.145 709.412 557.242 710.619 557.928V559.125V562.118L709.422 611.993H706.53C704.435 611.993 703.437 613.389 704.235 615.285L706.23 619.474C706.818 620.835 707.882 621.935 709.223 622.566L708.225 650.097H703.637V627.155H690.769V604.312H683.886C683.886 579.275 681.093 574.387 655.458 557.13C636.922 545.747 621.392 530.079 610.171 511.445H612.066V508.053H610.171V507.056H608.475V504.163C609.465 504.005 610.371 503.513 611.042 502.769C611.714 502.025 612.11 501.074 612.166 500.073C612.076 499.084 611.668 498.15 611.003 497.413C610.337 496.676 609.45 496.174 608.475 495.984V494.288C609.004 494.109 609.468 493.776 609.805 493.332C610.143 492.887 610.34 492.352 610.37 491.794C610.334 491.226 610.136 490.681 609.8 490.222C609.465 489.762 609.005 489.408 608.475 489.201V485.011H610.271C612.078 485.087 613.875 484.706 615.496 483.904C617.117 483.102 618.511 481.905 619.548 480.423C617.535 481.933 615.081 482.739 612.565 482.717C610.145 482.741 607.798 481.884 605.963 480.305C604.127 478.727 602.929 476.535 602.59 474.138C602.572 472.686 602.989 471.262 603.787 470.049C602.735 470.754 601.868 471.702 601.26 472.814C600.653 473.925 600.322 475.166 600.296 476.433C600.352 478.099 600.905 479.71 601.882 481.06C602.859 482.411 604.217 483.439 605.782 484.014V489.101C605.252 489.308 604.793 489.662 604.457 490.122C604.121 490.581 603.923 491.127 603.887 491.694C603.917 492.252 604.114 492.787 604.452 493.232C604.79 493.676 605.253 494.01 605.782 494.188V495.884C604.807 496.074 603.92 496.576 603.255 497.313C602.589 498.051 602.181 498.984 602.091 499.974C602.147 500.974 602.544 501.926 603.215 502.67C603.887 503.414 604.792 503.906 605.782 504.063V506.956H604.086V507.954H601.493V511.345H602.889C591.622 529.976 576.06 545.641 557.503 557.031C531.867 574.387 529.174 579.175 529.074 604.212H522.291V627.055H508.725V649.998H505.733V622.167C506.433 621.892 507.068 621.475 507.6 620.943C508.132 620.411 508.549 619.775 508.825 619.075L510.82 614.886C510.931 614.555 510.962 614.202 510.909 613.856C510.856 613.511 510.722 613.183 510.517 612.9C510.312 612.617 510.043 612.387 509.731 612.23C509.419 612.072 509.075 611.991 508.725 611.993H505.733L505.134 562.118V560.422V558.926C506.005 558.201 506.689 557.277 507.129 556.233V555.734C507.628 554.238 508.027 553.44 508.625 551.844C509.224 550.248 508.625 548.552 506.73 548.552H504.735V520.522V519.525V513.739V496.283V492.293C505.545 491.575 506.134 490.641 506.431 489.6L507.927 485.31C508.526 483.515 507.927 482.019 506.231 482.019H503.738V466.158C503.975 464.407 503.769 462.623 503.139 460.971C502.008 458.871 500.523 456.981 498.75 455.385C498.975 455.246 499.164 455.057 499.303 454.832C499.442 454.606 499.526 454.352 499.548 454.089C499.548 453.692 499.391 453.311 499.11 453.031C498.829 452.75 498.449 452.592 498.052 452.592C498.388 452.569 498.705 452.425 498.943 452.187C499.181 451.948 499.325 451.632 499.349 451.296C499.349 450.952 499.212 450.622 498.969 450.379C498.726 450.135 498.396 449.999 498.052 449.999C498.551 449.999 498.95 449.999 498.95 449.101C498.95 448.863 498.855 448.635 498.687 448.466C498.518 448.298 498.29 448.203 498.052 448.203C497.814 448.203 497.586 448.298 497.417 448.466C497.249 448.635 497.154 448.863 497.154 449.101C497.154 449.101 497.154 449.899 498.052 449.999C497.708 449.999 497.378 450.135 497.135 450.379C496.892 450.622 496.755 450.952 496.755 451.296C496.754 451.623 496.877 451.939 497.099 452.179C497.321 452.42 497.626 452.567 497.952 452.592C497.573 452.618 497.218 452.786 496.958 453.064C496.699 453.342 496.555 453.708 496.556 454.089C496.567 454.343 496.636 454.592 496.757 454.817C496.878 455.041 497.048 455.236 497.254 455.385C495.541 456.648 494.028 458.162 492.765 459.874C492.106 461.518 491.866 463.301 492.067 465.061V482.318H488.775C487.279 482.318 486.581 483.814 487.179 485.61C487.778 487.405 488.077 488.203 488.576 489.899C489.074 491.595 490.571 493.191 491.568 493.191V494.986V512.442V513.54V519.225L490.97 547.255H488.376C486.68 547.255 485.783 548.751 486.481 550.547L488.177 554.836C488.609 556.133 489.494 557.231 490.67 557.928V559.125V562.118L488.775 611.993H485.783C485.373 611.935 484.956 611.994 484.579 612.163C484.201 612.332 483.88 612.605 483.65 612.949C483.421 613.293 483.293 613.694 483.282 614.108C483.271 614.521 483.377 614.929 483.588 615.285L485.583 619.474C486.343 620.635 487.465 621.512 488.775 621.968L486.88 701.768H473.114V652.89C475.728 648.484 477.205 643.497 477.414 638.378C477.623 633.259 476.557 628.169 474.311 623.564C470.846 618.142 466.168 613.6 460.646 610.297C455.176 606.506 449.404 603.17 443.389 600.322C443.466 599.526 443.466 598.724 443.389 597.928C443.501 596.646 443.223 595.359 442.591 594.237C441.629 592.696 440.29 591.426 438.701 590.547C437.204 589.649 435.509 588.851 434.312 588.252V586.058L435.11 585.26C435.196 584.866 435.196 584.457 435.11 584.063C435.096 583.586 434.92 583.129 434.611 582.766C434.384 582.428 434.075 582.154 433.713 581.968V580.073L434.312 579.474C434.412 579.149 434.412 578.802 434.312 578.477C434.406 578.151 434.406 577.805 434.312 577.479C434.132 577.199 433.894 576.96 433.613 576.781V574.786L432.716 559.225L431.918 574.786V576.781C431.608 576.959 431.337 577.196 431.12 577.479C430.859 577.904 430.775 578.414 430.887 578.899C430.999 579.384 431.298 579.806 431.718 580.073V582.068C431.326 582.25 430.984 582.524 430.721 582.866C430.576 583.286 430.576 583.742 430.721 584.163C430.631 584.557 430.631 584.966 430.721 585.36C430.97 585.677 431.274 585.947 431.618 586.158V588.352L427.229 590.646C425.689 591.555 424.389 592.821 423.439 594.337C422.883 595.484 422.642 596.758 422.741 598.028C422.78 598.847 422.948 599.655 423.239 600.422C417.203 603.289 411.4 606.625 405.883 610.397C400.361 613.7 395.682 618.242 392.217 623.664C389.972 628.269 388.906 633.359 389.114 638.478C389.323 643.597 390.801 648.584 393.414 652.99V701.768H379.05V681.818C381.05 678.427 382.178 674.593 382.335 670.659C382.491 666.725 381.671 662.814 379.948 659.274C377.263 655.194 373.681 651.782 369.474 649.299C365.244 646.508 360.81 644.04 356.207 641.918C356.275 641.321 356.275 640.719 356.207 640.122C356.241 639.124 356.035 638.133 355.609 637.23C354.837 636.083 353.814 635.128 352.616 634.437L349.624 631.943V630.247C349.89 630.127 350.102 629.914 350.222 629.649C350.308 629.356 350.308 629.044 350.222 628.751C350.24 628.401 350.142 628.056 349.944 627.767C349.745 627.479 349.458 627.264 349.125 627.155V625.659C349.172 625.548 349.196 625.429 349.196 625.31C349.196 625.19 349.172 625.071 349.125 624.96C349.225 624.704 349.225 624.419 349.125 624.162H348.527V621.968L347.928 610.098L347.03 621.968V623.564C346.836 623.503 346.627 623.503 346.432 623.564C346.332 623.821 346.332 624.105 346.432 624.362C346.385 624.472 346.361 624.591 346.361 624.711C346.361 624.831 346.385 624.95 346.432 625.06V626.556C346.112 626.671 345.834 626.88 345.634 627.155C345.54 627.481 345.54 627.827 345.634 628.152C345.592 628.45 345.592 628.752 345.634 629.05C345.634 629.05 345.634 629.05 346.332 629.649V631.943L342.941 633.738C341.744 634.429 340.72 635.385 339.948 636.531C339.522 637.434 339.316 638.426 339.35 639.424C339.282 640.021 339.282 640.623 339.35 641.22C334.748 643.342 330.313 645.81 326.083 648.601C321.829 651.02 318.232 654.445 315.609 658.576C313.841 662.252 313.049 666.322 313.311 670.393C313.573 674.464 314.88 678.399 317.105 681.818V701.768H290.372L289.275 604.312C291.058 603.528 292.481 602.105 293.265 600.322C294.362 598.028 294.861 596.931 295.859 594.636C296.856 592.342 295.859 590.347 292.966 590.347H289.275L288.477 524.911V522.218V520.223C289.599 519.315 290.488 518.152 291.071 516.831V516.033L292.966 510.946C293.864 508.552 292.966 506.657 290.472 506.657H287.978L287.48 469.65V468.353V460.772V437.63V437.031V433.939C288.458 432.912 289.206 431.688 289.674 430.348C290.372 428.154 290.771 426.957 291.569 424.762C292.367 422.568 291.569 420.373 289.375 420.373H287.081V398.528H289.275H286.382C286.739 396.212 286.499 393.843 285.684 391.645C284.036 389.364 282.052 387.346 279.799 385.66C280.116 385.501 280.385 385.259 280.578 384.961C280.771 384.663 280.881 384.319 280.896 383.964C280.897 383.452 280.7 382.959 280.347 382.588C279.995 382.216 279.512 381.995 279.001 381.969C279.433 381.944 279.839 381.754 280.136 381.439C280.433 381.123 280.598 380.707 280.597 380.274C280.611 380.056 280.579 379.837 280.505 379.632C280.431 379.427 280.316 379.239 280.166 379.08C280.017 378.921 279.836 378.794 279.636 378.708C279.435 378.622 279.219 378.577 279.001 378.578C279.293 378.533 279.561 378.39 279.76 378.172C279.96 377.955 280.079 377.675 280.098 377.381C280.112 377.229 280.094 377.075 280.045 376.93C279.996 376.785 279.918 376.652 279.814 376.54C279.711 376.427 279.585 376.337 279.445 376.276C279.305 376.215 279.154 376.183 279.001 376.184C278.683 376.184 278.379 376.31 278.154 376.534C277.93 376.759 277.804 377.063 277.804 377.381C277.823 377.675 277.942 377.955 278.142 378.172C278.341 378.39 278.609 378.533 278.901 378.578C278.451 378.578 278.02 378.756 277.702 379.075C277.384 379.393 277.205 379.824 277.205 380.274C277.205 380.723 277.384 381.155 277.702 381.473C278.02 381.791 278.451 381.969 278.901 381.969C278.472 381.981 278.058 382.13 277.72 382.396C277.382 382.661 277.14 383.029 277.028 383.443C276.915 383.858 276.94 384.297 277.098 384.697C277.256 385.096 277.538 385.434 277.904 385.66C275.62 387.344 273.603 389.362 271.919 391.645C271.07 393.834 270.795 396.203 271.121 398.528V419.376H267.131C265.136 419.376 264.138 421.371 264.936 423.765C265.734 426.159 266.133 427.156 266.831 429.351C267.53 431.545 269.425 433.74 270.722 433.74V436.034V436.632L270.223 459.774V462.368V469.949L269.325 507.056H265.934C263.639 507.056 262.542 508.951 263.44 511.345L265.634 516.931C266.225 518.635 267.388 520.08 268.926 521.021V522.218V524.512L267.33 589.948H263.44C260.747 589.948 259.45 591.843 260.547 594.237C261.644 596.631 262.043 597.629 263.141 599.923C263.944 601.658 265.317 603.066 267.031 603.913L264.537 701.768H233.415V646.008C233.6 645.651 233.767 645.285 233.914 644.91C241.894 623.564 211.171 606.606 193.515 592.043C191.111 589.901 188.998 587.453 187.231 584.761C187.231 579.774 187.231 575.883 187.231 573.29C189.969 573.289 192.651 572.51 194.964 571.044C197.278 569.578 199.127 567.486 200.298 565.011C198.956 566.742 197.231 568.139 195.257 569.091C193.284 570.043 191.117 570.524 188.927 570.497C188.198 570.595 187.46 570.595 186.732 570.497C183.395 569.889 180.378 568.127 178.208 565.519C176.038 562.912 174.854 559.625 174.862 556.233C174.851 554.092 175.328 551.977 176.258 550.048C174.211 552.588 173.117 555.764 173.166 559.026C173.155 562.653 174.517 566.149 176.978 568.813C179.439 571.478 182.817 573.113 186.433 573.39C186.433 575.983 186.433 579.973 185.934 584.961C184.162 587.62 182.012 590.006 179.55 592.043C161.894 606.606 131.171 623.564 139.151 644.91C139.299 645.285 139.465 645.651 139.65 646.008V701.768H109.725V604.212L110.324 602.517C122.393 570.597 76.3088 545.16 49.7753 522.717C45.9944 519.721 42.668 516.193 39.9 512.243C39.9 505.859 39.9 500.672 39.3015 496.782H37.3065C37.3065 500.672 37.3065 505.859 36.8078 512.243C34.2186 516.327 31.0233 519.993 27.3315 523.116C19.3515 529.799 9.975 536.781 0 544.263V1100.77H1197V864.959C1196.1 864.918 1195.19 864.985 1194.31 865.159Z"
            fill="#108E7F" />
        <path
            d="M666.466 453.252C667.646 453.273 668.787 452.829 669.643 452.017L670.084 451.399C669.215 452.111 668.119 452.487 666.996 452.458C666.335 452.446 665.683 452.305 665.077 452.041C664.471 451.778 663.923 451.398 663.464 450.922C663.005 450.447 662.645 449.886 662.402 449.271C662.16 448.656 662.042 448 662.053 447.339C662.08 446.481 662.291 445.638 662.671 444.868C661.972 445.745 661.598 446.836 661.612 447.957C661.564 448.628 661.653 449.301 661.875 449.936C662.096 450.571 662.444 451.154 662.899 451.65C663.353 452.146 663.904 452.543 664.517 452.819C665.131 453.094 665.794 453.242 666.466 453.252Z"
            fill="#108E7F" />
        <path
            d="M248.956 416.805C250.185 416.801 251.373 416.364 252.31 415.569L252.751 414.863C251.845 415.641 250.68 416.051 249.486 416.01C248.806 416.011 248.133 415.875 247.507 415.613C246.88 415.35 246.311 414.965 245.835 414.48C245.359 413.996 244.983 413.421 244.731 412.79C244.479 412.158 244.356 411.483 244.367 410.804C244.37 409.875 244.614 408.963 245.073 408.156C244.361 409.094 243.988 410.245 244.014 411.421C243.966 412.104 244.058 412.789 244.284 413.434C244.509 414.08 244.864 414.673 245.327 415.177C245.789 415.681 246.35 416.085 246.974 416.365C247.598 416.645 248.272 416.794 248.956 416.805Z"
            fill="#108E7F" />
        <path
            d="M442.223 481.757C443.166 481.755 444.076 481.409 444.783 480.786V480.256C444.113 480.816 443.272 481.127 442.4 481.139C441.883 481.139 441.37 481.036 440.893 480.835C440.416 480.635 439.984 480.341 439.623 479.971C439.261 479.601 438.977 479.162 438.787 478.681C438.597 478.199 438.505 477.685 438.517 477.168C438.526 476.468 438.676 475.778 438.958 475.138C438.424 475.816 438.143 476.658 438.164 477.521C438.113 478.075 438.181 478.633 438.364 479.159C438.548 479.684 438.842 480.164 439.227 480.565C439.612 480.967 440.079 481.281 440.596 481.487C441.113 481.692 441.668 481.784 442.223 481.757Z"
            fill="#108E7F" />
        <path
            d="M637.166 481.757C638.108 481.755 639.018 481.409 639.725 480.786V480.256C639.025 480.822 638.154 481.133 637.254 481.139C636.216 481.116 635.228 480.687 634.503 479.945C633.777 479.203 633.371 478.206 633.371 477.168C633.366 476.456 633.549 475.756 633.9 475.138C633.341 475.807 633.03 476.649 633.018 477.521C632.98 478.079 633.061 478.64 633.254 479.165C633.448 479.69 633.751 480.168 634.143 480.568C634.534 480.968 635.006 481.281 635.527 481.486C636.048 481.691 636.606 481.783 637.166 481.757Z"
            fill="#108E7F" />
    </g>
    <defs>
        <clipPath id="clip0_27_99">
            <rect width="1059" height="1059" fill="white" />
        </clipPath>
    </defs>
</svg>
    